<?xml version="1.0" encoding="UTF-8" standalone="no"?>
<svg
   version="1.1"
   viewBox="0 0 16 16"
   id="svg7"
   sodipodi:docname="application-menu.svg"
   inkscape:version="1.2 (dc2aedaf03, 2022-05-15)"
   xmlns:inkscape="http://www.inkscape.org/namespaces/inkscape"
   xmlns:sodipodi="http://sodipodi.sourceforge.net/DTD/sodipodi-0.dtd"
   xmlns="http://www.w3.org/2000/svg"
   xmlns:svg="http://www.w3.org/2000/svg">
  <sodipodi:namedview
     id="namedview9"
     pagecolor="#ffffff"
     bordercolor="#666666"
     borderopacity="1.0"
     inkscape:showpageshadow="2"
     inkscape:pageopacity="0.0"
     inkscape:pagecheckerboard="0"
     inkscape:deskcolor="#d1d1d1"
     showgrid="false"
     inkscape:zoom="39.689486"
     inkscape:cx="8.5161094"
     inkscape:cy="8.3775336"
     inkscape:window-width="1500"
     inkscape:window-height="963"
     inkscape:window-x="0"
     inkscape:window-y="0"
     inkscape:window-maximized="1"
     inkscape:current-layer="svg7" />
  <defs
     id="defs3">
    <style
       id="current-color-scheme"
       type="text/css">.ColorScheme-Text {
        color:#363636;
      }</style>
  </defs>
  <path
     class="ColorScheme-Text"
     d="m 2.2914789,3.1069819 c -0.4517887,0 -0.8155029,0.3637145 -0.8155029,0.815503 0,0.4517886 0.3637142,0.815503 0.8155029,0.815503 H 13.708521 c 0.451789,0 0.815503,-0.3637144 0.815503,-0.815503 0,-0.4517885 -0.363714,-0.815503 -0.815503,-0.815503 z m 0,4.077515 c -0.4517887,0 -0.8155029,0.3637144 -0.8155029,0.815503 0,0.4517887 0.3637142,0.815503 0.8155029,0.815503 H 13.708521 c 0.451789,0 0.815503,-0.3637143 0.815503,-0.815503 0,-0.4517886 -0.363714,-0.815503 -0.815503,-0.815503 z m 0,4.0775141 c -0.4517887,0 -0.8155029,0.363715 -0.8155029,0.815504 0,0.451788 0.3637142,0.815503 0.8155029,0.815503 H 13.708521 c 0.451789,0 0.815503,-0.363715 0.815503,-0.815503 0,-0.451789 -0.363714,-0.815504 -0.815503,-0.815504 z"
     fill="currentColor"
     id="path5"
     style="stroke-width:0.815503" />
</svg>
