<?xml version="1.0" encoding="UTF-8" standalone="no"?>
<svg
   version="1.1"
   viewBox="0 0 22 22"
   id="svg7"
   sodipodi:docname="application-menu.svg"
   inkscape:version="1.2 (dc2aedaf03, 2022-05-15)"
   xmlns:inkscape="http://www.inkscape.org/namespaces/inkscape"
   xmlns:sodipodi="http://sodipodi.sourceforge.net/DTD/sodipodi-0.dtd"
   xmlns="http://www.w3.org/2000/svg"
   xmlns:svg="http://www.w3.org/2000/svg">
  <sodipodi:namedview
     id="namedview9"
     pagecolor="#ffffff"
     bordercolor="#666666"
     borderopacity="1.0"
     inkscape:showpageshadow="2"
     inkscape:pageopacity="0.0"
     inkscape:pagecheckerboard="0"
     inkscape:deskcolor="#d1d1d1"
     showgrid="false"
     inkscape:zoom="22.491316"
     inkscape:cx="9.2035522"
     inkscape:cy="9.3147062"
     inkscape:window-width="1500"
     inkscape:window-height="963"
     inkscape:window-x="0"
     inkscape:window-y="0"
     inkscape:window-maximized="1"
     inkscape:current-layer="svg7" />
  <defs
     id="defs3">
    <style
       id="current-color-scheme"
       type="text/css">.ColorScheme-Text {
        color:#363636;
      }</style>
  </defs>
  <path
     class="ColorScheme-Text"
     d="m 3.595992,4.6537075 c -0.5859743,0 -1.0577154,0.4717411 -1.0577154,1.0577154 0,0.5859744 0.4717411,1.0577154 1.0577154,1.0577154 h 14.808016 c 0.585974,0 1.057715,-0.471741 1.057715,-1.0577154 0,-0.5859743 -0.471741,-1.0577154 -1.057715,-1.0577154 z m 0,5.288577 c -0.5859743,0 -1.0577154,0.4717405 -1.0577154,1.0577155 0,0.585974 0.4717411,1.057715 1.0577154,1.057715 h 14.808016 c 0.585974,0 1.057715,-0.471741 1.057715,-1.057715 0,-0.585975 -0.471741,-1.0577155 -1.057715,-1.0577155 z m 0,5.2885775 c -0.5859743,0 -1.0577154,0.471741 -1.0577154,1.057715 0,0.585974 0.4717411,1.057715 1.0577154,1.057715 h 14.808016 c 0.585974,0 1.057715,-0.471741 1.057715,-1.057715 0,-0.585974 -0.471741,-1.057715 -1.057715,-1.057715 z"
     fill="currentColor"
     id="path5"
     style="stroke-width:1.05772" />
</svg>
